<svg width="125" height="46" viewBox="0 0 125 46" fill="none" xmlns="http://www.w3.org/2000/svg">
    <path id="theDot" d="M118.54 33.36C117.19 33.36 116.08 32.97 115.21 32.19C114.37 31.38 113.95 30.39 113.95 29.22C113.95 28.02 114.37 27.015 115.21 26.205C116.08 25.395 117.19 24.99 118.54 24.99C119.86 24.99 120.94 25.395 121.78 26.205C122.65 27.015 123.085 28.02 123.085 29.22C123.085 30.39 122.65 31.38 121.78 32.19C120.94 32.97 119.86 33.36 118.54 33.36Z" fill="black" />
    <path id="theG" d="M94.559 7.53C96.329 7.53 97.874 7.89 99.194 8.61C100.544 9.33 101.579 10.275 102.299 11.445V7.89H109.994V32.955C109.994 35.265 109.529 37.35 108.599 39.21C107.699 41.1 106.304 42.6 104.414 43.71C102.554 44.82 100.229 45.375 97.439 45.375C93.719 45.375 90.704 44.49 88.394 42.72C86.084 40.98 84.764 38.61 84.434 35.61H92.039C92.279 36.57 92.849 37.32 93.749 37.86C94.649 38.43 95.759 38.715 97.079 38.715C98.669 38.715 99.929 38.25 100.859 37.32C101.819 36.42 102.299 34.965 102.299 32.955V29.4C101.549 30.57 100.514 31.53 99.194 32.28C97.874 33 96.329 33.36 94.559 33.36C92.489 33.36 90.614 32.835 88.934 31.785C87.254 30.705 85.919 29.19 84.929 27.24C83.969 25.26 83.489 22.98 83.489 20.4C83.489 17.82 83.969 15.555 84.929 13.605C85.919 11.655 87.254 10.155 88.934 9.105C90.614 8.055 92.489 7.53 94.559 7.53ZM102.299 20.445C102.299 18.525 101.759 17.01 100.679 15.9C99.629 14.79 98.339 14.235 96.809 14.235C95.279 14.235 93.974 14.79 92.894 15.9C91.844 16.98 91.319 18.48 91.319 20.4C91.319 22.32 91.844 23.85 92.894 24.99C93.974 26.1 95.279 26.655 96.809 26.655C98.339 26.655 99.629 26.1 100.679 24.99C101.759 23.88 102.299 22.365 102.299 20.445Z" fill="black" />
    <path id="theD" d="M51.989 20.4C51.989 17.82 52.469 15.555 53.429 13.605C54.419 11.655 55.754 10.155 57.434 9.105C59.114 8.055 60.989 7.53 63.059 7.53C64.709 7.53 66.209 7.875 67.559 8.565C68.939 9.255 70.019 10.185 70.799 11.355V-0.3H78.494V33H70.799V29.4C70.079 30.6 69.044 31.56 67.694 32.28C66.374 33 64.829 33.36 63.059 33.36C60.989 33.36 59.114 32.835 57.434 31.785C55.754 30.705 54.419 29.19 53.429 27.24C52.469 25.26 51.989 22.98 51.989 20.4ZM70.799 20.445C70.799 18.525 70.259 17.01 69.179 15.9C68.129 14.79 66.839 14.235 65.309 14.235C63.779 14.235 62.474 14.79 61.394 15.9C60.344 16.98 59.819 18.48 59.819 20.4C59.819 22.32 60.344 23.85 61.394 24.99C62.474 26.1 63.779 26.655 65.309 26.655C66.839 26.655 68.129 26.1 69.179 24.99C70.259 23.88 70.799 22.365 70.799 20.445Z" fill="black" />
    <path id="theM" d="M37.5116 7.62C40.6316 7.62 43.1066 8.565 44.9366 10.455C46.7966 12.345 47.7266 14.97 47.7266 18.33V33H40.0766V19.365C40.0766 17.745 39.6416 16.5 38.7716 15.63C37.9316 14.73 36.7616 14.28 35.2616 14.28C33.7616 14.28 32.5766 14.73 31.7066 15.63C30.8666 16.5 30.4466 17.745 30.4466 19.365V33H22.7966V19.365C22.7966 17.745 22.3616 16.5 21.4916 15.63C20.6516 14.73 19.4816 14.28 17.9816 14.28C16.4816 14.28 15.2966 14.73 14.4266 15.63C13.5866 16.5 13.1666 17.745 13.1666 19.365V33H5.47164V7.89H13.1666V11.04C13.9466 9.99 14.9666 9.165 16.2266 8.565C17.4866 7.935 18.9116 7.62 20.5016 7.62C22.3916 7.62 24.0716 8.025 25.5416 8.835C27.0416 9.645 28.2116 10.8 29.0516 12.3C29.9216 10.92 31.1066 9.795 32.6066 8.925C34.1066 8.055 35.7416 7.62 37.5116 7.62Z" fill="black" />
</svg>